<?xml version="1.0" standalone="no"?>
<!DOCTYPE svg PUBLIC "-//W3C//DTD SVG 20010904//EN"
 "http://www.w3.org/TR/2001/REC-SVG-20010904/DTD/svg10.dtd">
<svg version="1.0" xmlns="http://www.w3.org/2000/svg"
 width="306.000000pt" height="306.000000pt" viewBox="0 0 306.000000 306.000000"
 preserveAspectRatio="xMidYMid meet">
<metadata>
Created by potrace 1.11, written by Peter Selinger 2001-2013
</metadata>
<g transform="translate(0.000000,306.000000) scale(0.100000,-0.100000)"
fill="#000000" stroke="none">
<path d="M820 2936 c0 -17 -69 -28 -87 -13 -9 6 -13 6 -13 -1 0 -10 -36 -19
-113 -27 -45 -5 -90 -21 -127 -44 -8 -5 -35 -19 -60 -31 -25 -12 -56 -30 -70
-41 -14 -12 -19 -18 -12 -14 6 3 12 4 12 1 0 -3 -10 -10 -21 -17 -17 -9 -20
-8 -14 3 3 7 0 5 -9 -6 -8 -10 -19 -15 -24 -12 -23 14 -46 -53 -26 -72 20 -18
26 -15 19 11 -5 17 -4 19 4 7 10 -13 12 -13 22 0 8 12 9 10 4 -7 -4 -15 -2
-23 6 -23 7 0 4 -6 -6 -14 -11 -8 -25 -12 -31 -9 -8 3 -11 -2 -7 -16 4 -18 7
-18 20 -6 22 23 34 18 27 -10 -5 -20 -3 -24 10 -19 12 5 16 0 16 -17 0 -22 0
-22 14 -3 13 17 15 17 21 2 4 -9 13 -14 21 -11 8 3 14 0 14 -6 0 -16 32 -51
42 -45 4 3 17 0 29 -7 21 -11 21 -10 5 12 -25 37 -18 47 10 14 l25 -30 -7 28
c-5 23 -3 27 12 25 11 -2 19 2 19 7 0 6 -3 9 -7 7 -13 -4 -9 8 6 24 19 19 24
9 21 -46 -2 -25 0 -38 3 -30 8 22 50 59 59 51 4 -3 1 2 -7 12 -7 10 -9 17 -4
16 25 -4 34 4 35 34 0 17 3 25 6 17 2 -8 7 -22 10 -30 3 -11 8 -8 19 13 8 15
19 27 25 27 5 0 9 6 8 13 -1 6 -1 17 0 22 2 15 44 16 53 2 6 -8 10 -5 14 10 4
13 11 20 17 16 5 -3 7 -2 4 4 -4 5 3 20 14 32 11 12 17 26 14 31 -10 16 2 12
21 -7 17 -17 18 -17 11 0 -15 38 -19 52 -10 42 17 -21 53 -12 65 16 9 21 16
25 25 17 10 -8 13 -6 13 6 0 9 -5 16 -11 16 -6 0 -3 7 5 16 9 8 16 20 16 25 0
8 -6 10 -38 13 -7 1 -17 8 -22 16 -7 10 -10 11 -10 3 0 -8 -13 -13 -30 -13
-20 0 -30 5 -30 15 0 8 -4 15 -10 15 -5 0 -10 -6 -10 -14z m89 -109 c0 -21 -1
-21 -9 -2 -12 28 -12 37 0 30 6 -3 10 -16 9 -28z m-89 -61 c0 -3 -4 -8 -10
-11 -5 -3 -10 -1 -10 4 0 6 5 11 10 11 6 0 10 -2 10 -4z m-49 -36 c6 0 7 -5 4
-10 -10 -16 -25 -1 -24 23 1 17 2 18 6 5 2 -10 9 -18 14 -18z m-411 -130 c0
-5 -4 -10 -10 -10 -5 0 -10 5 -10 10 0 6 5 10 10 10 6 0 10 -4 10 -10z m265 0
c-3 -5 -10 -10 -16 -10 -5 0 -9 5 -9 10 0 6 7 10 16 10 8 0 12 -4 9 -10z m-25
-44 c0 -3 -4 -8 -10 -11 -5 -3 -10 -1 -10 4 0 6 5 11 10 11 6 0 10 -2 10 -4z
m-150 -26 c0 -5 -4 -10 -10 -10 -5 0 -10 5 -10 10 0 6 5 10 10 10 6 0 10 -4
10 -10z"/>
<path d="M3035 2785 c-11 -13 -28 -24 -37 -25 -10 0 -18 -7 -18 -15 0 -8 -6
-15 -14 -15 -8 0 -17 -7 -20 -16 -5 -13 -9 -14 -20 -5 -14 12 -59 1 -70 -17
-7 -11 -46 -4 -46 7 0 19 -34 4 -72 -31 -23 -21 -45 -38 -49 -38 -4 0 -9 -4
-11 -8 -1 -4 -17 -18 -35 -30 -30 -22 -34 -22 -69 -7 -41 17 -53 13 -34 -10
10 -12 9 -16 -4 -20 -9 -3 -24 -8 -33 -12 -10 -3 -26 -5 -37 -4 -12 2 -16 -1
-10 -10 5 -9 2 -10 -9 -6 -10 3 -17 2 -17 -4 0 -6 -4 -7 -10 -4 -5 3 -10 2
-10 -4 0 -5 -19 -8 -44 -6 -35 4 -47 0 -62 -16 -21 -23 -56 -40 -92 -45 -13
-1 -35 -10 -49 -19 -14 -9 -38 -18 -55 -21 -33 -4 -61 -22 -53 -34 3 -5 -9
-11 -26 -15 -21 -5 -34 -3 -39 5 -6 10 -15 6 -33 -13 -13 -15 -28 -27 -32 -27
-10 0 -44 -37 -74 -82 -14 -20 -31 -34 -38 -31 -7 3 -13 0 -13 -7 0 -7 -8 -10
-20 -7 -21 5 -45 -16 -36 -32 4 -5 -2 -12 -12 -15 -10 -4 -29 -17 -41 -30 -13
-14 -30 -22 -40 -20 -13 5 -13 4 1 -6 15 -9 15 -14 5 -24 -9 -10 -16 -11 -25
-3 -10 8 -16 7 -23 -4 -11 -17 -11 -21 0 -38 5 -7 14 -10 20 -7 6 4 9 12 6 17
-4 5 8 9 24 9 18 0 31 -5 31 -12 0 -7 5 -5 11 5 5 9 18 17 27 18 14 0 14 2 -2
8 -19 7 -18 8 5 15 23 7 23 8 4 16 -16 7 -11 9 22 9 24 1 42 -2 42 -6 -3 -21
2 -33 12 -27 8 4 7 9 -2 15 -11 6 -10 9 4 15 9 3 17 15 17 25 0 11 7 19 16 19
13 0 15 -7 11 -30 -6 -28 -5 -29 19 -20 14 6 30 8 35 4 5 -3 9 -1 9 5 0 5 -4
13 -10 16 -15 9 -12 35 4 35 8 0 22 -10 30 -22 9 -12 17 -20 20 -17 8 8 11 78
3 85 -12 12 -8 24 7 18 8 -3 17 -1 21 5 10 16 25 13 25 -5 0 -13 3 -14 15 -4
8 7 21 10 30 7 8 -4 17 -2 19 2 3 5 27 14 53 22 27 7 59 19 73 27 24 13 24 13
-10 7 -19 -3 -45 -11 -58 -17 -17 -9 -25 -9 -34 0 -8 8 -4 14 16 22 15 5 25
14 22 19 -3 5 7 11 22 14 17 3 30 0 35 -9 11 -20 50 -17 78 5 13 10 31 21 39
25 8 3 3 4 -12 1 -39 -7 -35 12 5 29 26 11 34 11 46 0 12 -11 12 -15 -1 -27
-8 -8 -23 -17 -34 -20 -18 -4 -18 -5 2 -6 23 -1 64 33 64 53 0 18 37 49 49 41
6 -3 11 1 11 10 0 9 4 14 9 10 6 -3 14 3 20 12 5 10 13 14 18 9 4 -5 3 -11 -4
-13 -7 -2 -9 -11 -6 -19 3 -9 -1 -14 -12 -14 -14 0 -14 -2 -2 -14 19 -19 67
-9 67 14 0 20 27 46 37 36 4 -4 1 -11 -6 -15 -9 -6 -10 -11 -2 -15 6 -4 8 -13
4 -19 -3 -7 3 -4 14 6 11 9 23 17 26 17 12 0 7 -28 -5 -32 -7 -3 -2 -7 10 -10
20 -6 25 0 21 28 0 4 22 20 51 37 28 16 49 31 47 34 -3 2 -21 -5 -41 -17 -20
-11 -41 -20 -46 -20 -24 0 -5 18 55 54 36 21 79 51 96 67 36 34 39 35 39 13 0
-11 6 -15 20 -11 12 3 18 1 14 -5 -3 -5 -15 -7 -26 -5 -13 4 -22 -1 -28 -18
-5 -12 -22 -27 -39 -33 -32 -11 -40 -27 -18 -35 7 -3 5 -6 -5 -6 -10 -1 -18
-5 -18 -10 0 -5 -9 -13 -20 -16 -11 -3 -20 -10 -20 -16 0 -5 16 0 35 11 19 11
35 15 35 10 0 -6 7 -10 15 -10 8 0 15 -4 15 -10 0 -5 -4 -10 -8 -10 -5 0 -15
-11 -22 -25 -7 -14 -18 -25 -24 -25 -20 0 -34 -15 -41 -43 -5 -17 -3 -27 4
-27 6 0 11 7 11 15 0 19 71 84 86 78 13 -5 17 -63 3 -63 -5 0 -9 -4 -9 -10 0
-5 10 -10 23 -10 21 -1 22 -1 3 -15 -23 -17 -14 -20 15 -4 11 5 16 15 13 21
-5 7 -2 8 7 2 8 -4 25 -7 38 -5 36 4 16 -16 -24 -23 -19 -4 -37 -12 -41 -18
-5 -7 -2 -9 7 -6 49 20 49 20 43 5 -3 -9 -19 -19 -36 -22 -22 -5 -27 -10 -17
-15 7 -5 21 -4 30 1 23 12 49 1 42 -17 -3 -9 -12 -13 -19 -10 -8 3 -14 1 -14
-5 0 -6 -7 -9 -15 -5 -17 6 -19 -3 -4 -24 8 -11 12 -12 16 -2 2 6 9 10 14 6 5
-3 9 0 9 6 0 6 5 8 10 5 16 -10 11 -22 -12 -28 -18 -5 -19 -8 -9 -21 11 -13
10 -18 -3 -31 -9 -9 -17 -13 -17 -8 -1 4 -2 13 -4 18 -1 6 -3 17 -3 26 -1 9
-12 20 -24 24 -15 4 -18 8 -10 12 10 4 10 9 -3 23 -12 14 -14 23 -7 37 9 16 7
19 -11 20 -14 2 -17 -1 -9 -6 7 -4 10 -15 7 -23 -4 -9 -1 -19 5 -23 9 -6 9 -9
0 -15 -18 -11 19 -72 39 -65 11 4 9 0 -3 -14 -14 -16 -16 -24 -7 -34 6 -8 8
-17 4 -20 -3 -4 3 -7 15 -7 29 0 28 -17 0 -23 l-23 -4 23 -2 c17 -1 22 -5 18
-18 -14 -46 -23 -114 -15 -119 17 -10 -2 -25 -23 -18 -17 5 -18 3 -9 -14 8
-15 7 -23 -4 -32 -12 -10 -16 -9 -21 4 -3 9 -13 16 -21 16 -12 0 -13 -3 -5
-13 8 -9 6 -16 -8 -25 -23 -14 -53 -5 -46 15 3 8 1 11 -4 8 -6 -3 -13 -24 -16
-46 -5 -28 -11 -39 -20 -35 -7 3 -16 1 -19 -4 -4 -6 1 -10 9 -10 8 0 18 -5 22
-11 7 -13 -37 -2 -46 11 -3 4 -15 10 -27 14 -19 6 -23 4 -23 -14 0 -17 -3 -19
-17 -11 -12 6 -20 5 -29 -7 -10 -14 -14 -14 -28 -3 -14 11 -19 10 -36 -10 -10
-13 -19 -30 -20 -36 0 -15 -20 -18 -20 -3 0 24 -20 7 -25 -22 l-6 -33 -77 -3
c-42 -2 -89 -5 -104 -5 -16 -1 -28 -8 -28 -15 0 -9 -7 -11 -22 -6 -23 6 -23 6
1 -15 13 -11 27 -21 32 -21 12 0 3 -34 -11 -38 -7 -3 -10 0 -6 6 4 7 -3 8 -25
2 -22 -6 -37 -5 -52 4 -12 7 -40 13 -62 14 l-40 1 40 -9 c43 -9 157 -69 191
-101 11 -10 24 -19 30 -19 10 0 54 -53 72 -87 10 -18 9 -25 -5 -38 -15 -16
-17 -15 -30 18 -8 19 -23 37 -34 40 -11 3 -23 15 -26 26 -5 18 -30 38 -105 85
-44 26 -35 7 26 -55 16 -16 27 -32 24 -35 -3 -3 10 -21 28 -41 19 -20 34 -41
34 -48 0 -7 6 -25 14 -41 11 -20 12 -32 4 -47 -10 -19 -9 -19 17 1 50 39 60
31 74 -54 7 -40 10 -45 17 -29 5 11 15 21 22 23 8 1 10 -2 7 -8 -4 -6 1 -20
11 -31 9 -10 13 -19 8 -20 -5 0 0 -4 11 -9 l20 -9 -20 -1 c-19 -1 -19 -1 -2
-11 9 -6 15 -15 11 -20 -12 -19 5 -55 26 -55 23 0 23 0 8 42 -9 27 -9 35 5 48
8 9 24 16 34 15 17 0 16 -1 -1 -8 -15 -6 -16 -10 -7 -16 11 -6 11 -9 0 -16
-11 -7 -10 -9 4 -9 21 0 22 -14 2 -34 -8 -8 -15 -19 -15 -25 0 -6 -7 -11 -15
-11 -8 0 -15 -5 -15 -11 0 -6 -10 -8 -22 -5 -13 3 -17 3 -9 0 10 -5 7 -12 -13
-29 l-26 -22 26 -12 c21 -9 24 -14 14 -26 -7 -8 -8 -15 -4 -15 12 0 29 27 76
118 21 42 32 72 25 72 -8 0 -7 4 2 9 11 7 15 32 15 95 0 47 3 86 7 86 4 0 9 9
12 20 4 15 10 18 24 13 10 -3 15 -3 11 2 -4 4 -1 14 7 22 18 17 19 33 4 33 -5
0 -7 5 -4 10 5 8 11 7 21 -1 14 -11 15 -10 18 13 2 18 26 22 26 4 0 -9 5 -16
10 -16 6 0 10 9 10 20 0 11 5 20 10 20 6 0 11 15 11 33 l2 32 7 -35 c4 -19 8
-28 9 -20 1 13 3 13 10 1 7 -11 10 -6 13 18 3 31 4 31 23 16 17 -14 17 -16 3
-11 -10 3 -18 1 -18 -4 0 -6 5 -10 10 -10 6 0 10 -8 10 -17 1 -16 2 -16 16 2
13 17 16 18 24 5 7 -11 10 -6 11 20 2 30 3 31 6 8 2 -16 9 -28 14 -28 10 0 12
12 9 48 -1 12 3 22 9 22 6 0 11 11 11 25 0 16 6 25 15 25 8 0 15 5 15 10 0 6
4 10 10 10 5 0 7 -7 4 -15 -4 -8 -2 -15 4 -15 5 0 12 9 15 19 2 11 15 21 28
23 16 2 23 9 21 20 -1 9 2 19 8 23 5 3 10 17 10 30 0 13 6 30 13 37 11 11 14
70 16 265 3 285 -1 320 -32 325 -27 4 -34 33 -11 42 25 10 32 -4 10 -20 -19
-14 -19 -14 1 -14 32 0 46 62 21 89 -10 11 -10 13 0 7 9 -6 12 12 12 73 0 58
-4 81 -12 81 -8 0 -9 3 -3 8 9 6 21 362 12 362 -1 0 -11 -11 -22 -25z m-21
-127 c5 -10 7 -10 12 1 5 11 8 11 15 0 5 -9 -1 -17 -23 -26 -21 -9 -28 -18
-24 -29 5 -12 2 -15 -10 -10 -12 4 -14 1 -9 -14 4 -11 2 -20 -4 -20 -5 0 -15
-15 -21 -34 -13 -40 -40 -69 -40 -43 0 9 5 19 11 22 6 4 8 13 5 20 -2 7 4 21
15 31 10 9 19 25 19 34 0 9 9 25 19 34 11 10 17 24 14 32 -6 17 13 19 21 2z
m26 -48 c0 -5 -2 -10 -4 -10 -3 0 -8 5 -11 10 -3 6 -1 10 4 10 6 0 11 -4 11
-10z m-174 -37 c-10 -10 -19 5 -10 18 6 11 8 11 12 0 2 -7 1 -15 -2 -18z
m-130 -8 c-8 -8 -18 -15 -22 -15 -3 0 -1 7 6 15 7 8 17 15 22 15 5 0 3 -7 -6
-15z m8 -35 c-15 -15 -74 -30 -74 -20 0 5 15 14 33 19 44 13 53 13 41 1z m156
1 c0 -6 -4 -13 -10 -16 -5 -3 -10 -14 -10 -24 0 -10 -13 -23 -35 -31 -19 -7
-35 -20 -37 -28 -2 -12 -6 -12 -18 3 -9 11 -10 16 -2 11 6 -4 12 -3 12 2 0 5
9 12 20 15 13 3 18 10 14 21 -5 12 -2 15 10 10 9 -3 16 -1 16 5 0 14 21 40 33
41 4 0 7 -4 7 -9z m-50 -5 c0 -3 -4 -8 -10 -11 -5 -3 -10 -1 -10 4 0 6 5 11
10 11 6 0 10 -2 10 -4z m183 -13 c-5 -12 -3 -14 7 -8 8 5 5 -5 -6 -21 -34 -48
-39 -58 -24 -49 10 6 12 4 7 -8 -3 -10 -2 -17 2 -17 5 0 11 6 14 13 2 6 7 9
11 6 3 -3 4 -14 0 -23 -7 -18 -40 -22 -46 -6 -2 6 -9 0 -17 -12 -13 -22 -13
-22 4 -8 17 14 18 14 5 -10 -8 -14 -13 -29 -12 -33 1 -5 -2 -6 -7 -2 -6 3 -7
13 -4 22 5 11 3 14 -6 8 -10 -6 -11 -3 -1 15 11 20 10 22 -4 17 -22 -9 -20 -4
14 33 17 18 30 36 30 40 0 19 20 60 29 60 6 0 7 -7 4 -17z m-43 -17 c0 -15
-18 -31 -26 -23 -7 7 7 37 17 37 5 0 9 -6 9 -14z m-362 -28 c-3 -7 -13 -15
-24 -17 -16 -3 -17 -1 -5 13 16 19 34 21 29 4z m177 2 c-3 -5 -10 -10 -16 -10
-5 0 -9 5 -9 10 0 6 7 10 16 10 8 0 12 -4 9 -10z m60 -43 c0 -12 7 -23 15 -23
8 -1 19 -2 24 -3 5 0 3 -7 -3 -15 -9 -11 -9 -15 1 -19 8 -4 7 -6 -4 -6 -10 -1
-18 -5 -18 -11 0 -5 -4 -10 -10 -10 -5 0 -10 9 -10 21 0 11 4 17 10 14 6 -3 7
1 4 10 -6 15 -17 14 -63 -3 -19 -7 -11 11 19 46 27 32 35 32 35 -1z m35 23 c0
-5 -4 -10 -10 -10 -5 0 -10 5 -10 10 0 6 5 10 10 10 6 0 10 -4 10 -10z m50
-20 c0 -5 -4 -10 -10 -10 -5 0 -10 5 -10 10 0 6 5 10 10 10 6 0 10 -4 10 -10z
m-713 -78 c-9 -2 -15 -8 -12 -13 4 -5 -4 -9 -17 -9 l-23 0 25 19 c13 11 29 17
35 13 6 -4 2 -8 -8 -10z m659 -27 c-8 -8 -18 -15 -22 -15 -3 0 -1 7 6 15 7 8
17 15 22 15 5 0 3 -7 -6 -15z m154 5 c0 -5 -6 -7 -14 -4 -8 3 -16 -2 -19 -13
-4 -14 -5 -14 -6 5 -1 16 5 22 19 22 11 0 20 -4 20 -10z m-76 -79 c3 -4 -6
-13 -20 -20 -31 -14 -35 -14 -31 2 4 23 40 37 51 18z m66 -5 c0 -2 -7 -6 -15
-10 -8 -3 -15 -1 -15 4 0 6 7 10 15 10 8 0 15 -2 15 -4z m-76 -53 c6 -15 8
-15 16 -3 6 8 10 10 10 5 0 -6 -7 -21 -16 -33 -8 -12 -12 -27 -9 -32 3 -6 2
-10 -3 -10 -16 0 -23 30 -12 51 7 13 7 19 0 19 -5 0 -10 5 -10 10 0 16 17 11
24 -7z m-1004 -3 c8 -5 11 -10 5 -10 -5 0 -17 5 -25 10 -8 5 -10 10 -5 10 6 0
17 -5 25 -10z m-141 -31 c-22 -13 -31 -11 -17 5 7 8 17 12 22 9 4 -3 2 -9 -5
-14z m1111 -39 c0 -5 -2 -10 -4 -10 -3 0 -8 5 -11 10 -3 6 -1 10 4 10 6 0 11
-4 11 -10z m-5 -30 c-3 -5 -10 -10 -16 -10 -5 0 -9 5 -9 10 0 6 7 10 16 10 8
0 12 -4 9 -10z m55 -10 c-8 -5 -22 -10 -30 -10 -13 0 -13 1 0 10 8 5 22 10 30
10 13 0 13 -1 0 -10z m-68 -12 c15 4 19 2 13 -8 -4 -7 -2 -16 5 -20 8 -5 1
-11 -19 -18 -35 -13 -43 -6 -8 8 20 8 19 9 -10 9 -31 1 -59 21 -29 21 9 0 16
6 17 13 0 8 2 8 5 1 3 -7 14 -9 26 -6z m101 -15 c-7 -2 -19 -2 -25 0 -7 3 -2
5 12 5 14 0 19 -2 13 -5z m-3 -33 c0 -5 -2 -10 -4 -10 -3 0 -8 5 -11 10 -3 6
-1 10 4 10 6 0 11 -4 11 -10z m40 -14 c0 -3 -4 -8 -10 -11 -5 -3 -10 -1 -10 4
0 6 5 11 10 11 6 0 10 -2 10 -4z m-170 -97 c0 -5 -4 -9 -10 -9 -5 0 -10 7 -10
16 0 8 5 12 10 9 6 -3 10 -10 10 -16z m50 -46 c0 -12 3 -29 6 -38 6 -15 4 -15
-14 -4 -15 9 -18 17 -12 29 6 11 4 24 -7 39 -15 22 -15 22 6 9 11 -7 21 -23
21 -35z m-55 -43 c-3 -5 -10 -10 -16 -10 -5 0 -9 5 -9 10 0 6 7 10 16 10 8 0
12 -4 9 -10z m-545 -356 c0 -8 -5 -12 -10 -9 -6 4 -8 11 -5 16 9 14 15 11 15
-7z m50 -214 c0 -5 -5 -10 -11 -10 -5 0 -7 5 -4 10 3 6 8 10 11 10 2 0 4 -4 4
-10z m187 -52 c-3 -8 -6 -5 -6 6 -1 11 2 17 5 13 3 -3 4 -12 1 -19z m-217 2
c0 -5 -7 -7 -15 -4 -8 4 -15 8 -15 10 0 2 7 4 15 4 8 0 15 -4 15 -10z m97 -17
c12 -18 13 -27 4 -36 -8 -8 -11 -6 -11 10 0 11 -10 27 -22 35 -19 13 -19 15
-4 15 10 0 25 -11 33 -24z m52 -93 c12 0 12 -3 3 -12 -7 -7 -12 -20 -12 -30 0
-10 -5 -18 -11 -18 -7 0 -9 10 -7 25 3 14 1 28 -3 31 -5 3 -9 17 -8 32 l1 27
11 -27 c6 -16 18 -28 26 -28z m37 -37 c-11 -11 -17 4 -9 23 7 18 8 18 11 1 2
-10 1 -21 -2 -24z"/>
<path d="M930 2790 c0 -5 5 -10 11 -10 5 0 7 5 4 10 -3 6 -8 10 -11 10 -2 0
-4 -4 -4 -10z"/>
<path d="M9 2663 c-13 -16 -12 -17 4 -4 9 7 17 15 17 17 0 8 -8 3 -21 -13z"/>
<path d="M2415 2380 c-8 -13 5 -13 25 0 13 8 13 10 -2 10 -9 0 -20 -4 -23 -10z"/>
<path d="M2470 2340 c0 -5 6 -10 14 -10 8 0 18 5 21 10 3 6 -3 10 -14 10 -12
0 -21 -4 -21 -10z"/>
<path d="M2645 2340 c3 -5 8 -10 11 -10 2 0 4 5 4 10 0 6 -5 10 -11 10 -5 0
-7 -4 -4 -10z"/>
<path d="M2550 2336 c0 -2 9 -6 20 -9 11 -3 18 -1 14 4 -5 9 -34 13 -34 5z"/>
<path d="M2530 2322 c0 -7 -4 -11 -9 -8 -4 3 -17 -1 -27 -10 -19 -15 -19 -15
1 -10 11 3 26 2 34 -3 11 -7 10 -11 -5 -20 -17 -9 -17 -10 -1 -11 9 0 26 9 37
20 19 19 19 21 3 27 -10 4 -21 11 -25 17 -5 7 -8 7 -8 -2z"/>
<path d="M2387 2304 c2 -6 10 -11 16 -11 32 1 48 -4 42 -13 -3 -5 -16 -10 -28
-10 -18 0 -19 -2 -7 -10 10 -6 20 -4 32 7 21 19 24 42 6 44 -51 5 -65 4 -61
-7z"/>
<path d="M2601 2294 c-12 -15 -21 -32 -21 -38 0 -6 5 -3 11 7 5 9 18 17 27 18
11 0 12 2 4 6 -10 4 -10 8 -1 19 6 8 9 14 6 14 -3 0 -15 -12 -26 -26z"/>
<path d="M2750 2310 c0 -5 7 -7 15 -4 8 4 15 8 15 10 0 2 -7 4 -15 4 -8 0 -15
-4 -15 -10z"/>
<path d="M2470 2244 c0 -8 5 -12 10 -9 6 4 8 11 5 16 -9 14 -15 11 -15 -7z"/>
<path d="M2718 2250 c-9 -6 -24 -24 -32 -41 -14 -28 -14 -30 0 -25 9 3 25 6
35 6 11 0 18 4 14 10 -3 5 -12 7 -20 3 -23 -8 -18 5 11 32 27 25 23 33 -8 15z"/>
<path d="M2388 2230 c-9 -10 -19 -28 -23 -40 -6 -19 -5 -21 14 -11 21 12 41
41 41 60 0 16 -13 12 -32 -9z"/>
<path d="M2588 2233 c-10 -2 -18 -8 -18 -13 0 -4 9 -6 20 -3 11 3 20 9 20 14
0 5 -1 8 -2 8 -2 -1 -11 -3 -20 -6z"/>
<path d="M2506 2205 c-20 -31 -21 -41 -1 -21 8 8 15 19 15 25 0 21 19 11 23
-11 4 -20 4 -19 6 5 1 34 -21 36 -43 2z"/>
<path d="M2430 2201 c-13 -25 -13 -34 0 -26 16 10 32 45 21 45 -6 0 -15 -9
-21 -19z"/>
<path d="M2205 2160 c-3 -6 -1 -10 4 -10 20 0 11 -15 -20 -33 -18 -10 -29 -20
-25 -24 3 -3 14 1 24 10 10 10 23 17 28 17 8 0 48 39 41 41 -23 7 -47 7 -52
-1z"/>
<path d="M2690 2156 c15 -15 38 -16 51 0 9 11 4 13 -25 12 -25 -1 -33 -5 -26
-12z"/>
<path d="M2561 2146 c-9 -11 -8 -18 4 -30 21 -20 20 -21 20 14 0 33 -7 37 -24
16z"/>
<path d="M2614 2143 c4 -9 1 -20 -5 -24 -8 -5 -5 -10 9 -18 14 -7 23 -8 27 -1
3 5 -2 10 -11 10 -13 0 -15 3 -7 11 13 13 6 39 -9 39 -6 0 -7 -8 -4 -17z"/>
<path d="M2381 2134 c0 -11 3 -14 6 -6 3 7 2 16 -1 19 -3 4 -6 -2 -5 -13z"/>
<path d="M2750 2130 c-13 -8 -12 -10 3 -10 9 0 17 5 17 10 0 12 -1 12 -20 0z"/>
<path d="M2278 2123 c7 -3 16 -2 19 1 4 3 -2 6 -13 5 -11 0 -14 -3 -6 -6z"/>
<path d="M2416 2113 c-6 -14 -5 -15 5 -6 7 7 10 15 7 18 -3 3 -9 -2 -12 -12z"/>
<path d="M2520 2097 c-18 -14 -24 -37 -10 -37 10 0 34 39 28 45 -2 2 -10 -2
-18 -8z"/>
<path d="M2740 2100 c0 -6 -10 -15 -22 -20 -20 -8 -19 -9 10 -7 31 1 43 19 22
32 -5 3 -10 1 -10 -5z"/>
<path d="M2355 2080 c-3 -5 -1 -10 4 -10 6 0 11 5 11 10 0 6 -2 10 -4 10 -3 0
-8 -4 -11 -10z"/>
<path d="M2603 2077 c4 -10 0 -17 -11 -19 -13 -3 -12 -5 6 -10 17 -5 22 -2 22
12 0 11 -5 22 -12 26 -7 5 -9 2 -5 -9z"/>
<path d="M2093 2055 c-11 -9 -9 -10 12 -10 32 2 54 21 24 21 -12 0 -28 -5 -36
-11z"/>
<path d="M2470 2050 c0 -6 7 -10 15 -10 8 0 15 2 15 4 0 2 -7 6 -15 10 -8 3
-15 1 -15 -4z"/>
<path d="M2011 2041 c-10 -7 -7 -9 12 -8 15 1 27 5 27 10 0 10 -22 9 -39 -2z"/>
<path d="M1645 1999 c-11 -16 -1 -19 13 -3 7 8 8 14 3 14 -5 0 -13 -5 -16 -11z"/>
<path d="M2650 2000 c0 -5 5 -10 10 -10 6 0 10 5 10 10 0 6 -4 10 -10 10 -5 0
-10 -4 -10 -10z"/>
<path d="M2830 1959 c0 -5 5 -7 10 -4 6 3 10 8 10 11 0 2 -4 4 -10 4 -5 0 -10
-5 -10 -11z"/>
<path d="M1708 1933 c7 -3 16 -2 19 1 4 3 -2 6 -13 5 -11 0 -14 -3 -6 -6z"/>
<path d="M2730 1820 c0 -5 5 -10 10 -10 6 0 10 5 10 10 0 6 -4 10 -10 10 -5 0
-10 -4 -10 -10z"/>
<path d="M2665 1750 c3 -5 8 -10 11 -10 2 0 4 5 4 10 0 6 -5 10 -11 10 -5 0
-7 -4 -4 -10z"/>
<path d="M1330 1705 c-7 -9 -11 -17 -9 -20 3 -2 10 5 17 15 14 24 10 26 -8 5z"/>
<path d="M3053 1545 c0 -22 2 -30 4 -17 2 12 2 30 0 40 -3 9 -5 -1 -4 -23z"/>
<path d="M957 1532 c-22 -3 -27 -7 -22 -21 4 -13 -5 -28 -29 -49 -21 -18 -30
-32 -23 -35 18 -7 2 -19 -28 -21 -19 -1 -25 -5 -22 -18 3 -11 0 -15 -9 -11 -8
3 -14 0 -14 -6 0 -6 -9 -11 -19 -11 -14 0 -19 -6 -18 -22 3 -47 49 -68 81 -37
12 11 14 19 7 19 -7 0 -9 5 -6 11 4 6 14 8 22 5 11 -5 14 -1 10 13 -5 19 -4
19 29 1 18 -11 36 -16 38 -11 3 4 2 31 -3 60 -9 58 -2 70 24 41 10 -11 25 -20
33 -20 12 0 11 4 -4 18 -20 18 -48 62 -42 66 2 1 14 7 27 12 29 12 11 21 -32
16z"/>
<path d="M2940 1400 c0 -5 5 -10 10 -10 6 0 10 5 10 10 0 6 -4 10 -10 10 -5 0
-10 -4 -10 -10z"/>
<path d="M2902 1360 c0 -14 2 -19 5 -12 2 6 2 18 0 25 -3 6 -5 1 -5 -13z"/>
<path d="M2940 1353 c0 -14 3 -23 7 -19 10 10 11 46 1 46 -4 0 -8 -12 -8 -27z"/>
<path d="M900 1309 c0 -5 5 -7 10 -4 6 3 10 8 10 11 0 2 -4 4 -10 4 -5 0 -10
-5 -10 -11z"/>
<path d="M2058 1313 c-3 -8 -2 -57 2 -78 1 -5 6 -1 11 10 8 17 8 15 4 -7 -4
-20 -1 -28 9 -28 8 0 16 4 18 9 2 4 14 12 26 16 22 6 23 6 11 -17 -7 -12 -12
-26 -12 -29 1 -4 -11 -9 -26 -12 -16 -4 -29 -12 -28 -19 0 -7 -3 -28 -8 -46
-8 -33 -8 -33 -20 -10 -13 26 -8 51 8 41 7 -4 8 0 4 11 -4 10 -7 28 -7 41 0
19 -4 22 -22 17 -12 -3 -17 -7 -11 -9 15 -5 -12 -92 -36 -113 -26 -24 -111
-139 -111 -150 0 -5 -15 -17 -32 -26 -18 -9 -38 -25 -45 -34 -7 -10 -26 -23
-44 -30 -25 -11 -32 -11 -39 0 -5 8 -17 10 -34 6 -24 -6 -27 -3 -33 25 -4 20
-17 38 -37 50 -39 24 -42 24 -71 -6 -33 -32 -33 -76 1 -110 30 -30 26 -41 -19
-50 -17 -4 -57 -15 -87 -25 -30 -10 -74 -23 -98 -30 -54 -14 -51 -36 3 -33 21
2 43 7 49 13 5 5 36 10 69 10 55 0 57 -1 42 -17 -16 -16 -16 -17 1 -30 21 -15
38 -17 29 -3 -3 6 1 7 9 4 10 -4 16 -1 16 9 0 20 91 41 102 24 4 -7 8 -15 8
-18 0 -14 -97 -109 -111 -109 -9 0 -24 -11 -33 -25 -15 -23 -15 -25 0 -25 9 0
37 14 62 31 l45 30 20 -20 c19 -18 19 -23 7 -46 -26 -49 8 -71 113 -74 48 -1
60 -14 35 -40 -11 -10 -5 -12 27 -7 73 10 -115 -34 -223 -53 -118 -20 -134
-32 -85 -71 25 -20 36 -22 98 -17 l70 6 -80 -39 c-48 -24 -71 -40 -58 -40 25
0 127 36 159 57 21 13 54 9 54 -7 0 -5 -8 -11 -17 -14 -10 -3 7 -2 37 1 30 3
64 11 75 18 11 8 44 21 73 31 30 9 56 23 59 30 3 8 9 14 15 14 5 0 6 -4 3 -10
-11 -18 28 3 56 29 l27 26 -37 0 c-20 0 -41 -4 -47 -8 -7 -4 -15 0 -18 9 -3 8
-2 12 4 9 6 -3 10 -2 10 4 0 6 11 13 25 17 25 6 52 31 43 39 -3 3 -26 -4 -52
-15 -54 -23 -81 -26 -70 -8 5 8 -3 9 -29 5 -51 -8 -46 0 9 16 25 7 45 17 45
22 0 6 -32 20 -71 32 -39 12 -78 27 -86 34 -13 11 -11 15 18 30 18 10 40 19
48 19 24 2 80 79 80 110 0 15 -11 43 -24 63 -13 19 -21 38 -18 42 4 4 7 12 7
18 0 7 8 13 17 15 13 2 16 -1 12 -12 -4 -11 0 -16 12 -16 9 0 14 3 11 7 -7 6
20 29 38 33 6 1 14 8 18 16 5 8 12 12 16 9 13 -8 43 32 47 62 1 15 8 29 13 31
6 2 11 11 11 21 0 9 6 23 13 30 10 11 10 13 0 7 -16 -9 -17 6 -1 22 9 9 9 12
0 12 -7 0 -12 5 -12 11 0 5 4 8 9 4 13 -7 27 20 36 69 6 31 5 37 -5 31 -9 -6
-11 -4 -5 5 6 10 11 10 20 -3 7 -9 14 -14 17 -12 8 9 -3 55 -14 55 -5 0 -7 8
-3 19 10 31 -5 49 -51 62 -24 7 -43 18 -43 24 3 22 -1 35 -10 35 -6 0 -11 -3
-13 -7z m53 -190 c-5 -10 -9 -22 -9 -26 -1 -23 -12 -17 -12 6 0 21 7 30 28 36
1 1 -2 -7 -7 -16z m-108 -78 c-3 -9 -8 -14 -10 -11 -3 3 -2 9 2 15 9 16 15 13
8 -4z m102 -35 c-3 -5 -11 -10 -16 -10 -6 0 -7 5 -4 10 3 6 11 10 16 10 6 0 7
-4 4 -10z m-125 -45 c-13 -14 -26 -23 -28 -20 -4 4 38 44 47 45 3 0 -6 -11
-19 -25z m-220 -135 c0 -5 -4 -10 -10 -10 -5 0 -10 5 -10 10 0 6 5 10 10 10 6
0 10 -4 10 -10z m93 -21 c-8 -8 -22 -8 -50 -1 l-38 11 43 -4 c25 -2 42 1 42 8
0 5 3 7 7 4 4 -4 2 -12 -4 -18z m52 -37 c-3 -3 -11 0 -18 7 -9 10 -8 11 6 5
10 -3 15 -9 12 -12z m-309 -59 c-10 -10 -19 5 -10 18 6 11 8 11 12 0 2 -7 1
-15 -2 -18z m-41 -3 c-28 -12 -37 -12 -30 0 3 6 16 10 28 9 21 0 21 -1 2 -9z"/>
<path d="M2781 1304 c0 -11 3 -14 6 -6 3 7 2 16 -1 19 -3 4 -6 -2 -5 -13z"/>
<path d="M950 1301 c0 -5 7 -11 14 -14 10 -4 13 -1 9 9 -6 15 -23 19 -23 5z"/>
<path d="M2105 1290 c3 -5 8 -10 11 -10 2 0 4 5 4 10 0 6 -5 10 -11 10 -5 0
-7 -4 -4 -10z"/>
<path d="M703 1263 c-13 -8 -23 -22 -23 -29 0 -17 16 -18 24 -1 5 9 7 9 12 -1
8 -18 24 -5 17 14 -3 9 0 20 8 25 12 7 12 9 -1 8 -8 0 -25 -7 -37 -16z"/>
<path d="M688 1213 c-10 -2 -18 -11 -18 -19 0 -8 5 -12 10 -9 6 3 10 1 10 -5
0 -6 7 -18 15 -26 12 -13 15 -12 25 6 8 15 8 20 -2 20 -9 0 -9 3 2 10 13 9 13
11 0 20 -8 5 -17 9 -20 9 -3 -1 -13 -3 -22 -6z"/>
<path d="M2770 1210 c0 -5 5 -10 11 -10 5 0 7 5 4 10 -3 6 -8 10 -11 10 -2 0
-4 -4 -4 -10z"/>
<path d="M701 1114 c0 -11 3 -14 6 -6 3 7 2 16 -1 19 -3 4 -6 -2 -5 -13z"/>
<path d="M1916 1105 c-15 -14 -24 -30 -21 -35 9 -15 11 -13 35 21 28 39 21 46
-14 14z"/>
<path d="M604 1088 c-4 -15 -1 -25 10 -34 12 -8 13 -13 5 -16 -9 -3 -7 -12 7
-30 22 -30 51 -42 51 -22 0 8 -9 14 -19 14 -16 0 -18 6 -14 31 4 25 1 32 -15
36 -14 4 -18 11 -14 24 4 11 4 19 1 19 -2 0 -8 -10 -12 -22z"/>
<path d="M646 1095 c-3 -8 -1 -15 4 -15 13 0 22 18 11 24 -5 3 -11 -1 -15 -9z"/>
<path d="M2180 1099 c0 -5 5 -7 10 -4 6 3 10 8 10 11 0 2 -4 4 -10 4 -5 0 -10
-5 -10 -11z"/>
<path d="M760 1060 c0 -6 7 -10 15 -10 8 0 15 2 15 4 0 2 -7 6 -15 10 -8 3
-15 1 -15 -4z"/>
<path d="M683 1052 c-7 -4 -9 -13 -4 -21 7 -10 9 -9 14 3 4 10 13 13 24 10 15
-5 16 -4 3 5 -18 13 -21 13 -37 3z"/>
<path d="M2180 1050 c0 -5 5 -10 10 -10 6 0 10 5 10 10 0 6 -4 10 -10 10 -5 0
-10 -4 -10 -10z"/>
<path d="M585 1040 c-3 -5 -1 -10 4 -10 6 0 11 5 11 10 0 6 -2 10 -4 10 -3 0
-8 -4 -11 -10z"/>
<path d="M2299 1048 c-7 -26 -5 -58 3 -58 6 0 9 3 5 6 -3 3 -2 17 3 30 6 15 6
24 0 24 -6 0 -10 -1 -11 -2z"/>
<path d="M726 997 c3 -10 9 -15 12 -12 3 3 0 11 -7 18 -10 9 -11 8 -5 -6z"/>
<path d="M553 975 c-19 -21 -16 -25 15 -24 15 1 20 3 10 6 -10 2 -15 10 -11
19 7 18 2 17 -14 -1z"/>
<path d="M620 931 c0 -6 4 -13 10 -16 6 -3 7 1 4 9 -7 18 -14 21 -14 7z"/>
<path d="M550 920 c0 -5 -6 -10 -12 -10 -7 0 -21 -14 -30 -31 -16 -27 -16 -33
-3 -57 8 -15 14 -20 15 -12 0 13 1 13 10 0 5 -8 12 -12 15 -8 3 3 -1 13 -10
22 -9 9 -12 16 -6 16 5 0 13 -4 16 -10 3 -5 16 -10 28 -9 l22 0 -21 11 c-15 7
-20 16 -16 34 3 15 10 23 18 20 7 -3 17 1 23 8 7 8 5 12 -9 13 -11 1 -22 -2
-25 -8 -4 -5 -13 -9 -22 -9 -11 0 -9 5 8 20 13 10 18 19 12 20 -7 0 -13 -4
-13 -10z m-20 -64 c0 -2 -7 -7 -16 -10 -8 -3 -12 -2 -9 4 6 10 25 14 25 6z"/>
<path d="M740 873 c-21 -8 -28 -22 -23 -44 6 -23 19 -25 27 -4 3 9 0 15 -10
15 -12 0 -10 5 7 20 25 20 25 22 -1 13z"/>
<path d="M676 845 c-3 -8 -1 -15 4 -15 6 0 10 7 10 15 0 8 -2 15 -4 15 -2 0
-6 -7 -10 -15z"/>
<path d="M475 809 c-4 -6 -5 -13 -2 -16 7 -7 27 6 27 18 0 12 -17 12 -25 -2z"/>
<path d="M680 810 c-8 -5 -12 -11 -9 -14 2 -3 11 -1 19 4 8 5 12 11 9 14 -2 3
-11 1 -19 -4z"/>
<path d="M440 801 c0 -6 4 -13 10 -16 6 -3 7 1 4 9 -7 18 -14 21 -14 7z"/>
<path d="M588 803 c7 -3 16 -2 19 1 4 3 -2 6 -13 5 -11 0 -14 -3 -6 -6z"/>
<path d="M520 780 c0 -5 5 -10 10 -10 6 0 10 5 10 10 0 6 -4 10 -10 10 -5 0
-10 -4 -10 -10z"/>
<path d="M502 769 c5 -12 -2 -14 -31 -12 -20 2 -30 0 -23 -3 6 -3 12 -12 12
-19 0 -7 6 -16 13 -18 7 -3 4 -6 -7 -6 -15 -1 -16 -4 -6 -16 10 -12 10 -15 -3
-15 -11 0 -14 -5 -10 -16 5 -14 1 -16 -20 -12 -19 4 -27 1 -27 -9 0 -8 6 -13
13 -11 6 1 22 -4 35 -11 19 -10 21 -15 11 -27 -10 -12 -8 -19 9 -35 30 -28 28
-49 -5 -50 -17 -1 -21 -3 -10 -6 9 -2 17 -9 17 -15 0 -7 4 -7 13 1 8 6 17 7
22 3 4 -4 5 3 1 14 -8 26 16 39 45 24 11 -6 23 -8 28 -5 5 3 12 -1 14 -7 3 -8
6 -5 6 5 1 13 7 17 24 15 13 -2 21 -9 19 -18 -3 -12 -1 -12 9 -3 9 9 17 8 36
-4 14 -10 28 -12 33 -7 14 14 -13 59 -38 62 -12 2 -22 10 -22 18 0 21 4 29 13
27 12 -5 8 14 -7 26 -23 19 -42 -14 -29 -49 9 -24 8 -29 -7 -33 -13 -3 -16 1
-12 18 2 13 -2 33 -8 45 -11 20 -10 22 4 17 11 -4 19 -1 22 11 3 9 10 25 15
35 6 11 6 17 -1 17 -15 0 -12 16 5 33 12 13 12 15 -5 20 -11 3 -18 1 -14 -4 3
-5 -1 -6 -9 -3 -8 3 -17 -3 -21 -13 -4 -10 -2 -19 4 -21 8 -3 7 -8 -1 -18 -8
-10 -8 -14 0 -14 6 0 11 -5 11 -10 0 -11 -31 4 -67 34 -22 19 -33 43 -13 31
22 -14 8 11 -17 29 -19 14 -25 16 -21 5z m9 -72 c-10 -9 -11 -8 -5 6 3 10 9
15 12 12 3 -3 0 -11 -7 -18z m60 -29 c5 -10 7 -28 3 -40 -4 -14 -2 -18 5 -14
6 4 11 2 11 -4 0 -7 -7 -9 -16 -6 -9 3 -20 6 -26 6 -6 0 -5 7 3 17 12 15 12
16 -3 10 -12 -4 -18 -1 -18 9 0 8 -4 12 -10 9 -14 -8 -13 18 1 32 15 15 37 6
50 -19z m-81 -38 c0 -5 -4 -10 -10 -10 -5 0 -10 5 -10 10 0 6 5 10 10 10 6 0
10 -4 10 -10z m47 -61 c-13 -21 -37 -33 -37 -19 0 6 6 10 13 11 6 1 1 4 -13 9
l-25 7 25 10 c36 15 52 7 37 -18z"/>
<path d="M2935 707 c-38 -39 -69 -76 -67 -81 2 -4 -4 -6 -13 -3 -9 4 -15 1
-15 -9 0 -8 -4 -12 -10 -9 -5 3 -10 1 -10 -4 0 -6 -5 -11 -11 -11 -6 0 -22 -9
-36 -20 -42 -33 -14 -23 59 21 67 41 84 55 51 42 -11 -4 -14 -3 -9 5 4 7 13
12 21 12 7 0 16 6 18 13 4 9 7 9 14 0 7 -9 18 -6 46 14 20 14 35 28 33 31 -3
2 -18 -5 -34 -17 -35 -25 -43 -26 -36 -7 3 8 15 17 27 20 12 3 18 8 14 12 -4
4 5 20 20 36 15 15 23 28 17 27 -5 0 -40 -33 -79 -72z"/>
<path d="M3020 749 c-19 -17 -26 -26 -15 -21 18 9 64 52 54 52 -2 0 -20 -14
-39 -31z"/>
<path d="M681 744 c-19 -22 -21 -30 -12 -48 7 -12 10 -14 7 -4 -4 13 4 23 26
34 17 9 27 19 22 23 -5 3 -12 10 -15 14 -3 4 -16 -5 -28 -19z"/>
<path d="M408 718 c5 -5 16 -8 23 -6 8 3 3 7 -10 11 -17 4 -21 3 -13 -5z"/>
<path d="M715 710 c-4 -6 -11 -8 -16 -5 -5 4 -9 1 -9 -4 0 -17 37 -13 44 4 6
17 -9 21 -19 5z"/>
<path d="M410 684 c0 -8 5 -12 10 -9 6 3 10 10 10 16 0 5 -4 9 -10 9 -5 0 -10
-7 -10 -16z"/>
<path d="M1440 673 c0 -11 5 -11 20 -3 11 6 20 13 20 15 0 2 -9 3 -20 2 -11
-1 -20 -7 -20 -14z"/>
<path d="M1595 664 c-19 -16 -19 -16 5 -9 31 9 50 25 30 25 -8 0 -24 -8 -35
-16z"/>
<path d="M316 662 c-4 -6 -2 -20 3 -29 6 -10 11 -13 11 -8 0 6 5 3 10 -5 8
-12 9 -9 8 12 -1 15 -5 25 -9 22 -4 -2 -9 1 -11 8 -3 9 -6 9 -12 0z"/>
<path d="M1078 653 c7 -3 16 -2 19 1 4 3 -2 6 -13 5 -11 0 -14 -3 -6 -6z"/>
<path d="M1457 644 c-6 -6 -27 -10 -74 -13 -34 -2 -29 -31 5 -31 15 0 33 5 38
10 6 6 25 12 42 13 18 1 30 7 29 12 -4 12 -30 18 -40 9z"/>
<path d="M297 634 c-3 -3 -3 -12 0 -20 3 -8 0 -14 -6 -14 -6 0 -11 -6 -11 -14
0 -8 -6 -17 -12 -19 -8 -3 -5 -6 6 -6 14 -1 17 -7 14 -26 -3 -14 -1 -25 3 -25
5 0 9 5 9 10 0 6 8 10 18 10 15 0 15 -2 2 -11 -13 -9 -13 -10 2 -6 9 3 18 1
21 -6 2 -6 6 -3 10 7 4 10 3 15 -3 11 -16 -10 -12 23 6 50 9 14 12 25 6 25 -6
0 -12 -8 -14 -17 -3 -13 -9 -8 -22 20 -20 40 -20 40 -29 31z m23 -44 c0 -5 -5
-10 -11 -10 -5 0 -7 5 -4 10 3 6 8 10 11 10 2 0 4 -4 4 -10z"/>
<path d="M1036 625 c4 -8 13 -15 21 -15 12 0 12 2 -1 15 -8 8 -17 15 -20 15
-3 0 -3 -7 0 -15z"/>
<path d="M1310 615 c-10 -13 -9 -15 8 -15 15 0 20 5 16 15 -4 8 -7 15 -9 15
-1 0 -8 -7 -15 -15z"/>
<path d="M1270 600 c-6 -11 -8 -20 -6 -20 3 0 10 9 16 20 6 11 8 20 6 20 -3 0
-10 -9 -16 -20z"/>
<path d="M2699 563 c-13 -16 -12 -17 4 -4 16 13 21 21 13 21 -2 0 -10 -8 -17
-17z"/>
<path d="M358 543 c7 -3 16 -2 19 1 4 3 -2 6 -13 5 -11 0 -14 -3 -6 -6z"/>
<path d="M2602 504 c-24 -14 -41 -28 -38 -31 3 -3 27 8 53 26 58 37 46 41 -15
5z"/>
<path d="M60 516 c0 -2 7 -7 16 -10 8 -3 12 -2 9 4 -6 10 -25 14 -25 6z"/>
<path d="M570 501 c0 -5 -10 -11 -22 -14 -26 -7 -18 -19 16 -22 27 -3 44 30
20 39 -8 3 -14 2 -14 -3z"/>
<path d="M145 490 c-3 -5 -1 -10 4 -10 6 0 11 5 11 10 0 6 -2 10 -4 10 -3 0
-8 -4 -11 -10z"/>
<path d="M348 483 c7 -3 16 -2 19 1 4 3 -2 6 -13 5 -11 0 -14 -3 -6 -6z"/>
<path d="M467 439 c7 -7 15 -10 18 -7 3 3 -2 9 -12 12 -14 6 -15 5 -6 -5z"/>
<path d="M2080 420 c0 -5 4 -10 9 -10 6 0 13 5 16 10 3 6 -1 10 -9 10 -9 0
-16 -4 -16 -10z"/>
<path d="M3040 400 c0 -5 5 -10 11 -10 5 0 7 5 4 10 -3 6 -8 10 -11 10 -2 0
-4 -4 -4 -10z"/>
<path d="M80 351 c0 -5 7 -11 14 -14 10 -4 13 -1 9 9 -6 15 -23 19 -23 5z"/>
<path d="M190 350 c-13 -8 -12 -10 3 -10 9 0 17 5 17 10 0 12 -1 12 -20 0z"/>
<path d="M2890 340 c-19 -11 -31 -19 -27 -20 12 0 77 28 77 34 0 10 -14 6 -50
-14z"/>
<path d="M125 340 c3 -5 8 -10 11 -10 2 0 4 5 4 10 0 6 -5 10 -11 10 -5 0 -7
-4 -4 -10z"/>
<path d="M100 300 c-9 -6 -10 -10 -3 -10 6 0 15 5 18 10 8 12 4 12 -15 0z"/>
<path d="M134 285 c-17 -12 -16 -13 16 -11 51 4 54 5 46 13 -13 13 -43 12 -62
-2z"/>
<path d="M2080 269 c-72 -31 -119 -40 -55 -10 22 11 38 20 35 20 -9 1 -210
-66 -217 -73 -3 -3 -16 -6 -27 -6 -27 -1 -98 -39 -73 -40 35 0 7 -17 -60 -35
-69 -19 -155 -52 -103 -40 62 14 81 13 35 -2 -27 -9 -43 -18 -34 -20 29 -7
474 143 504 170 6 5 -2 6 -20 2 -16 -3 -3 6 30 20 62 27 90 46 65 44 -8 -1
-44 -14 -80 -30z m-383 -165 c-3 -3 -12 -4 -19 -1 -8 3 -5 6 6 6 11 1 17 -2
13 -5z"/>
<path d="M45 270 c4 -6 -5 -10 -19 -10 -26 0 -26 0 -26 -91 0 -57 4 -88 10
-84 5 3 10 0 10 -8 0 -7 7 -14 15 -14 8 0 15 4 15 9 0 19 18 6 22 -17 3 -13 1
-22 -3 -19 -5 3 -9 0 -9 -6 0 -6 9 -14 21 -18 34 -13 817 -14 824 -1 4 6 0 10
-11 9 -11 -1 -21 -1 -24 0 -11 5 -68 11 -115 11 l-50 1 60 13 60 12 -95 -4
c-52 -3 -125 -8 -162 -12 -42 -5 -65 -4 -61 2 4 6 -2 8 -13 5 -11 -3 -27 4
-39 15 -18 19 -19 20 -1 13 13 -4 17 -2 13 8 -4 11 -1 13 10 9 11 -4 14 -2 9
5 -4 7 -3 12 3 12 6 0 13 11 17 24 4 16 11 23 20 19 8 -3 14 0 14 7 0 8 10 10
27 7 18 -3 37 2 54 14 14 10 29 16 33 12 3 -3 6 -1 6 6 0 7 5 9 10 6 6 -3 10
-1 10 5 0 7 8 9 21 5 15 -5 19 -4 14 5 -5 8 -37 10 -111 6 -106 -5 -129 -10
-119 -26 3 -5 -8 -7 -25 -5 -16 2 -32 0 -35 -6 -9 -13 -49 -11 -63 3 -9 9 -12
8 -12 -5 0 -15 -9 -16 -72 -12 -39 3 -73 7 -76 10 -3 3 2 5 10 5 10 0 15 7 13
18 -1 9 -9 16 -17 14 -9 -1 -21 5 -28 13 -16 19 -30 19 -30 1 0 -10 -7 -12
-22 -8 -19 5 -20 7 -5 10 9 2 17 8 17 13 0 6 -9 7 -22 4 -16 -6 -20 -4 -15 8
5 13 2 15 -18 7 -16 -6 -25 -6 -25 0 0 6 -5 10 -11 10 -5 0 -7 -4 -4 -10z
m127 -59 c2 -17 1 -28 -4 -25 -8 5 -12 54 -4 54 2 0 6 -13 8 -29z m323 -70
c-3 -6 -11 -11 -17 -11 -6 0 -6 6 2 15 14 17 26 13 15 -4z m-115 -76 c0 -13 4
-14 20 -5 15 8 25 7 41 -4 26 -17 15 -24 -34 -21 -20 2 -40 -1 -43 -6 -6 -11
-24 -2 -24 11 0 5 7 7 16 3 13 -5 15 -2 9 15 -4 13 -2 22 4 22 6 0 11 -7 11
-15z m-70 -15 c-13 -9 -13 -11 0 -20 9 -6 10 -10 3 -10 -6 0 -15 5 -18 10 -8
13 3 30 18 30 7 0 6 -4 -3 -10z m80 -30 c0 -5 -4 -10 -10 -10 -5 0 -10 5 -10
10 0 6 5 10 10 10 6 0 10 -4 10 -10z"/>
<path d="M230 252 c0 -18 12 -42 21 -42 14 0 11 20 -6 36 -8 9 -15 11 -15 6z"/>
<path d="M3015 250 c-18 -8 -17 -9 7 -9 15 -1 30 4 33 9 7 12 -12 12 -40 0z"/>
<path d="M2935 210 c-3 -5 -1 -10 4 -10 6 0 11 5 11 10 0 6 -2 10 -4 10 -3 0
-8 -4 -11 -10z"/>
<path d="M2885 200 c-3 -5 -2 -10 4 -10 5 0 13 5 16 10 3 6 2 10 -4 10 -5 0
-13 -4 -16 -10z"/>
<path d="M630 170 c0 -5 5 -10 10 -10 6 0 10 5 10 10 0 6 -4 10 -10 10 -5 0
-10 -4 -10 -10z"/>
<path d="M676 172 c-2 -4 4 -8 14 -8 10 0 16 4 14 8 -3 4 -9 8 -14 8 -5 0 -11
-4 -14 -8z"/>
<path d="M2930 168 c-14 -6 -20 -12 -14 -14 6 -3 24 2 40 11 33 17 13 19 -26
3z"/>
<path d="M3035 141 c-11 -9 -91 -36 -140 -47 -16 -3 -25 -8 -18 -11 6 -2 31 2
55 8 44 13 53 15 101 18 20 1 27 6 27 21 0 21 -10 26 -25 11z"/>
<path d="M1515 114 l-40 -14 45 6 c25 3 49 10 55 15 13 13 -12 10 -60 -7z"/>
<path d="M2859 120 c-8 -5 -33 -8 -55 -7 -23 0 -60 -8 -87 -21 -26 -12 -50
-22 -54 -22 -5 0 -14 -9 -21 -20 -7 -11 -10 -20 -7 -20 13 0 162 41 180 50 11
5 32 14 48 20 15 5 27 14 27 20 0 12 -10 12 -31 0z"/>
<path d="M1830 105 c-11 -13 -10 -14 4 -9 9 3 16 10 16 15 0 13 -6 11 -20 -6z"/>
<path d="M3015 83 c-16 -3 -36 -10 -43 -15 -9 -8 -16 -8 -24 0 -8 8 -17 8 -31
0 -11 -6 -46 -14 -76 -18 -56 -8 -124 -29 -138 -44 -17 -17 121 6 242 39 33
10 72 20 88 22 15 3 27 9 27 14 0 5 -3 8 -7 8 -5 -1 -21 -4 -38 -6z"/>
<path d="M2416 53 c-4 -4 -19 -7 -33 -8 -34 0 -44 -25 -9 -25 13 0 28 4 31 10
3 5 20 14 38 19 30 9 30 9 6 10 -14 1 -29 -2 -33 -6z"/>
<path d="M2995 36 c-89 -22 -98 -34 -24 -34 65 1 89 10 89 34 0 16 1 16 -65 0z"/>
<path d="M2298 33 c-26 -6 -22 -33 4 -33 12 0 18 3 15 7 -4 3 -2 12 4 20 12
13 8 14 -23 6z"/>
<path d="M2507 29 c-9 -5 -36 -14 -60 -18 -42 -9 -42 -9 19 -10 56 -1 118 12
137 29 12 11 -76 10 -96 -1z"/>
<path d="M932 21 c-11 -7 -10 -10 3 -15 22 -8 22 -8 22 9 0 17 -6 18 -25 6z"/>
<path d="M1038 23 c6 -2 18 -2 25 0 6 3 1 5 -13 5 -14 0 -19 -2 -12 -5z"/>
<path d="M983 13 c9 -2 23 -2 30 0 6 3 -1 5 -18 5 -16 0 -22 -2 -12 -5z"/>
<path d="M2165 10 c-25 -11 1 -11 35 0 20 6 21 8 5 8 -11 0 -29 -3 -40 -8z"/>
<path d="M2878 3 c7 -3 16 -2 19 1 4 3 -2 6 -13 5 -11 0 -14 -3 -6 -6z"/>
</g>
</svg>
